<?xml version="1.0" encoding="utf-8"?>
<!-- Generator: Adobe Illustrator 21.1.0, SVG Export Plug-In . SVG Version: 6.00 Build 0)  -->
<svg version="1.1" xmlns="http://www.w3.org/2000/svg" xmlns:xlink="http://www.w3.org/1999/xlink" x="0px" y="0px"
	 viewBox="0 0 155.2 189.4" style="enable-background:new 0 0 155.2 189.4;" xml:space="preserve">
<style type="text/css">
	.st0{fill:#5C6AC4;}
	.st1{fill:#231F20;}
	.st2{fill:#2CE5B5;}
	.st3{fill:#FFFFFF;}
	.st4{fill:url(#SVGID_3_);}
	.st5{opacity:0.8;fill:url(#SVGID_4_);}
	.st6{fill:#5D6AB0;}
	.st7{fill:url(#SVGID_5_);}
	.st8{opacity:0.5;fill:url(#SVGID_6_);}
	.st9{fill:url(#SVGID_7_);}
	.st10{fill:url(#SVGID_8_);}
	.st11{fill:url(#SVGID_9_);}
	.st12{fill:url(#SVGID_10_);}
	.st13{fill:url(#SVGID_11_);}
	.st14{fill:url(#SVGID_12_);}
	.st15{fill:url(#SVGID_13_);}
	.st16{fill:#61C2A6;}
	.st17{fill:url(#SVGID_14_);}
	.st18{fill:url(#SVGID_15_);}
	.st19{fill:url(#SVGID_16_);}
	.st20{fill:url(#SVGID_17_);}
	.st21{fill:url(#SVGID_18_);}
	.st22{fill:url(#SVGID_19_);}
	.st23{fill:url(#SVGID_20_);}
	.st24{fill:url(#SVGID_21_);}
	.st25{fill:url(#SVGID_22_);}
	.st26{fill:url(#SVGID_23_);}
	.st27{fill:url(#SVGID_24_);}
	.st28{fill:url(#SVGID_25_);}
	.st29{opacity:0.2;fill:url(#SVGID_26_);}
	.st30{fill:#5170B5;}
	.st31{fill:#38A3D9;}
	.st32{opacity:0.98;}
	.st33{fill:url(#SVGID_27_);}
	.st34{fill:url(#SVGID_28_);}
	.st35{fill:url(#SVGID_29_);}
	.st36{fill:url(#SVGID_30_);}
	.st37{fill:url(#SVGID_31_);}
	.st38{fill:url(#SVGID_32_);}
	.st39{fill:url(#SVGID_33_);}
	.st40{fill:url(#SVGID_34_);}
	.st41{fill:#4275F4;}
	.st42{fill:#3BCC56;}
	.st43{fill:#2DE283;}
	.st44{fill:#64B276;}
	.st45{fill:#3BB73B;}
	.st46{fill:url(#SVGID_35_);}
	.st47{fill:url(#SVGID_36_);}
	.st48{fill:url(#SVGID_37_);}
	.st49{fill:url(#SVGID_38_);}
	.st50{fill:url(#SVGID_39_);}
	.st51{fill:url(#SVGID_40_);}
	.st52{fill:url(#SVGID_41_);}
	.st53{fill:url(#SVGID_42_);}
	.st54{fill:url(#SVGID_43_);}
	.st55{fill:url(#SVGID_44_);}
	.st56{fill:url(#SVGID_45_);}
	.st57{fill:url(#SVGID_46_);}
	.st58{fill:url(#SVGID_47_);}
	.st59{fill:url(#SVGID_48_);}
	.st60{fill:url(#SVGID_49_);}
	.st61{fill:url(#SVGID_50_);}
	.st62{fill:url(#SVGID_51_);}
	.st63{fill:url(#SVGID_52_);}
	.st64{fill:url(#SVGID_53_);}
	.st65{fill:url(#SVGID_54_);}
	.st66{fill:url(#SVGID_55_);}
	.st67{fill:url(#SVGID_56_);}
	.st68{opacity:0.5;fill:url(#SVGID_57_);}
	.st69{fill:url(#SVGID_58_);}
	.st70{opacity:0.5;fill:url(#SVGID_59_);}
	.st71{opacity:0.4;fill:url(#SVGID_60_);}
	.st72{fill:url(#SVGID_61_);}
	.st73{fill:url(#SVGID_62_);}
	.st74{fill:url(#SVGID_63_);}
	.st75{fill:url(#SVGID_64_);}
	.st76{fill:url(#SVGID_65_);}
	.st77{fill:url(#SVGID_66_);}
	.st78{fill:url(#SVGID_67_);}
	.st79{fill:url(#SVGID_68_);}
	.st80{fill:none;stroke:#231F20;stroke-width:3;stroke-miterlimit:10;}
	.st81{fill:url(#SVGID_69_);}
	.st82{fill:url(#SVGID_70_);}
	.st83{fill:url(#SVGID_71_);}
	.st84{fill:url(#SVGID_72_);}
	.st85{fill:url(#SVGID_73_);}
	.st86{fill:url(#SVGID_74_);}
	.st87{fill:url(#SVGID_75_);}
	.st88{fill:url(#SVGID_76_);}
	.st89{fill:url(#SVGID_77_);}
	.st90{fill:url(#SVGID_78_);}
	.st91{fill:url(#SVGID_79_);}
	.st92{fill:url(#SVGID_80_);}
	.st93{fill:url(#SVGID_81_);}
	.st94{fill:url(#SVGID_82_);}
	.st95{fill:url(#SVGID_83_);}
	.st96{fill:url(#SVGID_84_);}
	.st97{fill:url(#SVGID_85_);}
	.st98{fill:url(#SVGID_86_);}
	.st99{fill:url(#SVGID_87_);}
	.st100{fill:url(#SVGID_88_);}
	.st101{fill:url(#SVGID_89_);}
	.st102{fill:url(#SVGID_90_);}
	.st103{fill:url(#SVGID_91_);}
	.st104{fill:url(#SVGID_92_);}
	.st105{fill:url(#SVGID_93_);}
	.st106{fill:url(#SVGID_94_);}
	.st107{fill:url(#SVGID_95_);}
	.st108{fill:url(#SVGID_96_);}
	.st109{fill:url(#SVGID_97_);}
	.st110{fill:url(#SVGID_98_);}
	.st111{fill:url(#SVGID_99_);}
	.st112{fill:url(#SVGID_100_);}
	.st113{fill:url(#SVGID_101_);}
	.st114{fill:url(#SVGID_102_);}
	.st115{fill:url(#SVGID_103_);}
	.st116{fill:url(#SVGID_104_);}
	.st117{fill:url(#SVGID_105_);}
	.st118{fill:url(#SVGID_106_);}
	.st119{fill:url(#SVGID_107_);}
	.st120{fill:url(#SVGID_108_);}
	.st121{fill:url(#SVGID_109_);}
	.st122{fill:url(#SVGID_110_);}
	.st123{fill:url(#SVGID_111_);}
	.st124{fill:url(#SVGID_112_);}
	.st125{fill:url(#SVGID_113_);}
	.st126{fill:url(#SVGID_114_);}
	.st127{fill:url(#SVGID_115_);}
	.st128{fill:url(#SVGID_116_);}
	.st129{fill:url(#SVGID_117_);}
	.st130{fill:url(#SVGID_118_);}
	.st131{fill:url(#SVGID_119_);}
	.st132{fill:url(#SVGID_120_);}
	.st133{fill:url(#SVGID_121_);}
	.st134{fill:url(#SVGID_122_);}
	.st135{fill:url(#SVGID_123_);}
	.st136{fill:url(#SVGID_124_);}
	.st137{fill:url(#SVGID_125_);}
	.st138{fill:url(#SVGID_126_);}
	.st139{fill:url(#SVGID_127_);}
	.st140{fill:url(#SVGID_128_);}
	.st141{fill:url(#SVGID_129_);}
	.st142{fill:url(#SVGID_130_);}
	.st143{fill:url(#SVGID_131_);}
	.st144{fill:url(#SVGID_132_);}
	.st145{fill:url(#SVGID_133_);}
	.st146{fill:url(#SVGID_134_);}
	.st147{fill:url(#SVGID_135_);}
	.st148{fill:url(#SVGID_136_);}
	.st149{fill:#42B029;}
	.st150{fill:#87BD26;}
	.st151{fill:#C4D600;}
	.st152{opacity:0.2;fill:#4275F4;}
	.st153{fill:#62C157;}
	.st154{opacity:0.8;fill:#42A15E;}
	.st155{opacity:0.8;fill:#75AB5B;}
	.st156{opacity:0.8;fill:#A2BD40;}
	.st157{fill:#5DBF5D;}
	.st158{fill:url(#SVGID_137_);}
	.st159{fill:url(#SVGID_138_);}
	.st160{fill:url(#SVGID_139_);}
	.st161{fill:url(#SVGID_140_);}
	.st162{fill:url(#SVGID_141_);}
	.st163{fill:url(#SVGID_142_);}
</style>
<g id="Layer_4">
</g>
<g id="Layer_1">
	<g>
		<linearGradient id="SVGID_2_" gradientUnits="userSpaceOnUse" x1="113.5375" y1="20.985" x2="138.0375" y2="46.735">
			<stop  offset="0.2135" style="stop-color:#556DD1"/>
			<stop  offset="0.2595" style="stop-color:#556DD1"/>
			<stop  offset="0.5005" style="stop-color:#526ED6"/>
			<stop  offset="0.7892" style="stop-color:#4A71E5"/>
			<stop  offset="1" style="stop-color:#4275F4"/>
		</linearGradient>
		<path style="fill:url(#SVGID_2_);" d="M92.7,52.4c-3.7,0-7.4-1.9-9.4-5.3c-3.1-5.2-1.4-11.9,3.8-15l51.6-30.6
			c5.2-3.1,11.9-1.4,15,3.8c3.1,5.2,1.4,11.9-3.8,15L98.3,50.9C96.6,51.9,94.6,52.4,92.7,52.4z"/>
		<linearGradient id="SVGID_3_" gradientUnits="userSpaceOnUse" x1="55.3653" y1="152.0468" x2="112.3653" y2="116.3801">
			<stop  offset="0" style="stop-color:#2CE5B5"/>
			<stop  offset="0.3383" style="stop-color:#2FD8BC"/>
			<stop  offset="0.9655" style="stop-color:#36B5D0"/>
			<stop  offset="1" style="stop-color:#36B3D1"/>
		</linearGradient>
		<path class="st4" d="M10.9,189.4c-3.7,0-7.3-1.9-9.4-5.3c-3.1-5.2-1.4-11.9,3.7-15l106.4-63.8c5.2-3.1,11.9-1.4,15,3.7
			c3.1,5.2,1.4,11.9-3.7,15L16.5,187.8C14.8,188.9,12.8,189.4,10.9,189.4z"/>
		<linearGradient id="SVGID_4_" gradientUnits="userSpaceOnUse" x1="39.2526" y1="55.4866" x2="109.946" y2="55.4866">
			<stop  offset="0" style="stop-color:#4275F4"/>
			<stop  offset="0.4962" style="stop-color:#506FDA"/>
			<stop  offset="1" style="stop-color:#5C6AC4"/>
		</linearGradient>
		<path style="fill:url(#SVGID_4_);" d="M144.3,0c-2.3,0-4.5,0.7-6.2,2l0,0l-4.7,2.8v18.9v6.5v51l-117-67.9c-5.2-3-11.9-1.3-14.9,4
			c-3,5.2-1.3,11.9,4,14.9l133.4,77.4c0,0,0,0,0,0c0.4,0.2,0.8,0.4,1.3,0.6c0,0,0,0,0,0c0.2,0.1,0.4,0.2,0.6,0.2c0,0,0.1,0,0.1,0
			c0.2,0.1,0.3,0.1,0.5,0.2c0,0,0.1,0,0.1,0c0.2,0.1,0.4,0.1,0.6,0.1c0.1,0,0.2,0,0.3,0c0.1,0,0.2,0,0.4,0.1c0.1,0,0.2,0,0.3,0
			c0.1,0,0.2,0,0.3,0c0.1,0,0.2,0,0.3,0c0.1,0,0.2,0,0.3,0c0.1,0,0.2,0,0.3,0c0.1,0,0.1,0,0.2,0c0.1,0,0.3,0,0.4,0
			c0.1,0,0.2,0,0.2,0c0.1,0,0.3,0,0.4,0c0.1,0,0.1,0,0.2,0c0.2,0,0.4-0.1,0.6-0.1c0,0,0,0,0,0c0.5-0.1,0.9-0.2,1.3-0.4c0,0,0,0,0,0
			c0.2-0.1,0.4-0.1,0.6-0.2c0,0,0,0,0,0c0.4-0.2,0.8-0.4,1.2-0.6c0.1,0,0.1-0.1,0.2-0.1c0.1-0.1,0.3-0.2,0.4-0.2
			c0.1,0,0.1-0.1,0.2-0.1c0.1-0.1,0.2-0.2,0.3-0.2c0.1-0.1,0.2-0.2,0.4-0.3c0.1-0.1,0.2-0.1,0.2-0.2c0.1-0.1,0.2-0.2,0.3-0.2
			c0.1-0.1,0.1-0.1,0.2-0.2c0.1-0.1,0.2-0.2,0.3-0.2c0.1-0.1,0.3-0.3,0.4-0.4c0.1-0.1,0.1-0.1,0.2-0.2c0.1-0.1,0.2-0.2,0.3-0.3
			c0-0.1,0.1-0.1,0.1-0.2c0.3-0.4,0.5-0.7,0.8-1.1c0,0,0,0,0,0c0,0,0,0,0,0c0.1-0.1,0.2-0.3,0.2-0.4c0,0,0-0.1,0-0.1
			c0.1-0.1,0.1-0.3,0.2-0.4c0,0,0-0.1,0-0.1c0.1-0.1,0.1-0.3,0.2-0.4c0,0,0-0.1,0.1-0.1c0-0.1,0.1-0.2,0.1-0.4c0-0.1,0-0.1,0.1-0.2
			c0-0.1,0.1-0.2,0.1-0.3c0-0.1,0-0.2,0.1-0.2c0-0.1,0-0.2,0.1-0.3c0-0.1,0-0.2,0.1-0.3c0-0.1,0-0.1,0-0.2c0-0.1,0-0.2,0.1-0.4
			c0-0.1,0-0.1,0-0.2c0-0.1,0-0.3,0.1-0.4c0,0,0-0.1,0-0.1c0-0.1,0-0.3,0-0.4c0,0,0-0.1,0-0.1c0-0.2,0-0.3,0-0.5c0,0,0,0,0-0.1V10.9
			C155.2,4.9,150.3,0,144.3,0z"/>
		<linearGradient id="SVGID_5_" gradientUnits="userSpaceOnUse" x1="10.9181" y1="189.3858" x2="10.9181" y2="11.696">
			<stop  offset="2.702703e-02" style="stop-color:#2CE5B5"/>
			<stop  offset="0.1188" style="stop-color:#30D2C0"/>
			<stop  offset="0.3399" style="stop-color:#38AAD6"/>
			<stop  offset="0.5419" style="stop-color:#3D8DE7"/>
			<stop  offset="0.7163" style="stop-color:#417BF0"/>
			<stop  offset="0.8432" style="stop-color:#4275F4"/>
		</linearGradient>
		<path class="st7" d="M21.8,159.2v-12.6v-124c0-6-4.9-10.9-10.9-10.9C4.9,11.7,0,16.6,0,22.6v155.9c0,6,4.9,10.9,10.9,10.9
			c2.4,0,4.5-0.8,6.3-2l0,0l4.6-2.7V159.2z"/>
		<linearGradient id="SVGID_6_" gradientUnits="userSpaceOnUse" x1="159.0118" y1="26.7128" x2="129.0118" y2="46.0461">
			<stop  offset="0" style="stop-color:#4A84FF"/>
			<stop  offset="0.3997" style="stop-color:#467CF9;stop-opacity:0.6003"/>
			<stop  offset="1" style="stop-color:#4275F4;stop-opacity:0"/>
		</linearGradient>
		<path style="fill:url(#SVGID_6_);" d="M155.2,10.1c0-0.1,0-0.3,0-0.4c0-0.2-0.1-0.4-0.1-0.6c0-0.2-0.1-0.3-0.1-0.5
			c0-0.2-0.1-0.4-0.1-0.5c0-0.2-0.1-0.4-0.2-0.5c0-0.1-0.1-0.3-0.2-0.4c-0.1-0.2-0.2-0.4-0.2-0.6c-0.1-0.1-0.1-0.3-0.2-0.4
			c-0.1-0.2-0.2-0.4-0.3-0.6c0-0.1-0.1-0.1-0.1-0.2c0-0.1-0.1-0.1-0.1-0.2c-0.1-0.2-0.2-0.4-0.3-0.5c-0.1-0.1-0.2-0.3-0.3-0.4
			c-0.1-0.1-0.2-0.3-0.3-0.4c-0.1-0.1-0.3-0.3-0.4-0.4c-0.1-0.1-0.2-0.2-0.3-0.3c-0.1-0.1-0.3-0.3-0.5-0.4c-0.1-0.1-0.2-0.2-0.3-0.3
			c-0.2-0.1-0.3-0.2-0.5-0.4c-0.1-0.1-0.3-0.2-0.4-0.3c-0.2-0.1-0.3-0.2-0.5-0.3c-0.2-0.1-0.3-0.2-0.5-0.3c-0.1-0.1-0.3-0.1-0.4-0.2
			c-0.2-0.1-0.4-0.2-0.6-0.2c-0.1-0.1-0.3-0.1-0.4-0.2c-0.2-0.1-0.4-0.1-0.6-0.2c-0.1,0-0.3-0.1-0.4-0.1c-0.2,0-0.4-0.1-0.6-0.1
			c-0.2,0-0.3-0.1-0.5-0.1c-0.2,0-0.3,0-0.5-0.1c-0.2,0-0.4,0-0.6,0c-0.1,0-0.2,0-0.3,0c-0.1,0-0.1,0-0.2,0c-0.1,0-0.3,0-0.4,0
			c-0.2,0-0.4,0-0.5,0c-0.1,0-0.3,0-0.4,0c-0.2,0-0.5,0.1-0.7,0.1c-0.1,0-0.3,0.1-0.4,0.1c-0.2,0.1-0.5,0.1-0.7,0.2
			c-0.1,0-0.2,0.1-0.4,0.1c-0.2,0.1-0.4,0.1-0.6,0.2c-0.1,0.1-0.2,0.1-0.4,0.2c-0.2,0.1-0.4,0.2-0.7,0.3c-0.1,0-0.1,0.1-0.2,0.1
			L86.3,32.7c1,0.1,7.5,5,26.7,4.2c8.7-0.3,20.4-6.8,20.4-6.8v47.2c7.8,0,15.5-2.6,21.8-7.3v-59c0-0.1,0-0.1,0-0.2
			C155.2,10.5,155.2,10.3,155.2,10.1z"/>
		<linearGradient id="SVGID_7_" gradientUnits="userSpaceOnUse" x1="1.2275" y1="172.6508" x2="23.7275" y2="137.1508">
			<stop  offset="0" style="stop-color:#2CE5B5"/>
			<stop  offset="1" style="stop-color:#2CE5B5;stop-opacity:0"/>
		</linearGradient>
		<path class="st9" d="M62,135.1l-40.2,24.1v-12.6V86.1c-7.8,0-15.2,1.7-21.8,4.7v87.7c0,0.1,0,0.1,0,0.2c0,0.2,0,0.4,0,0.6
			c0,0.2,0,0.3,0,0.5c0,0.2,0.1,0.4,0.1,0.5c0,0.2,0.1,0.4,0.1,0.6c0,0.2,0.1,0.3,0.1,0.5c0.1,0.2,0.1,0.4,0.2,0.6
			c0,0.1,0.1,0.2,0.1,0.4c0.1,0.2,0.2,0.4,0.3,0.7c0,0.1,0.1,0.2,0.1,0.3c0.1,0.2,0.2,0.5,0.4,0.7c0,0,0,0.1,0.1,0.1
			c0,0,0.1,0.1,0.1,0.1c0.2,0.3,0.4,0.7,0.7,1c0,0.1,0.1,0.1,0.1,0.2c0.3,0.3,0.6,0.7,0.9,1c0.1,0.1,0.2,0.1,0.2,0.2
			c0.2,0.2,0.5,0.4,0.7,0.6c0.1,0.1,0.2,0.2,0.3,0.2c0.3,0.2,0.6,0.4,0.9,0.6c0,0,0.1,0,0.1,0.1c0.4,0.2,0.8,0.4,1.2,0.6
			c0.1,0,0.1,0,0.2,0.1c0.3,0.1,0.7,0.2,1.1,0.3c0.1,0,0.2,0,0.3,0.1c0.3,0.1,0.7,0.1,1,0.2c0.1,0,0.2,0,0.3,0
			c0.4,0,0.9,0.1,1.3,0.1c0,0,0,0,0,0c0,0,0,0,0,0c0,0,0,0,0,0c0.4,0,0.8,0,1.3-0.1c0.1,0,0.2,0,0.3,0c0.4-0.1,0.8-0.1,1.2-0.2
			c0.1,0,0.2-0.1,0.3-0.1c0.4-0.1,0.8-0.2,1.1-0.4c0.1,0,0.2-0.1,0.3-0.1c0.3-0.1,0.7-0.3,1-0.5c0.1,0,0.1-0.1,0.2-0.1L62,160.6
			V135.1z"/>
	</g>
</g>
<g id="Layer_3">
</g>
<g id="Layer_2">
</g>
</svg>
